<svg version="1.1" id="layer" xmlns="http://www.w3.org/2000/svg" xmlns:xlink="http://www.w3.org/1999/xlink" x="0px" y="0px" style="enable-background:new 0 0 652 652;" xml:space="preserve" viewBox="14.8 261.35 623.63 131.15">
<style type="text/css">
	.st0{fill:#80919C;}
	.st1{fill:#5E176A;}
	.st2{fill:#982D91;}
</style>
<g>
	<path class="st0" d="M189.2,308.5c3.7,0,7.9,0.5,7.9,0.5c0.6,0.1,0.9,0.6,0.9,1.2l-0.2,1.8c0,0.6-0.6,1-1.2,0.9   c-1.2-0.2-4.5-0.5-7.4-0.5c-8.3,0-10.3,4.1-10.3,14.8c0,10.6,2,14.8,10.3,14.8c3,0,6.2-0.3,7.4-0.5c0.6-0.1,1.1,0.3,1.2,0.9   l0.2,1.8c0.1,0.6-0.3,1.1-0.9,1.2c0,0-4.2,0.5-7.9,0.5c-11.5,0-14.5-5.8-14.5-18.7C174.7,314.3,177.7,308.5,189.2,308.5"/>
	<path class="st0" d="M217.7,308.5c11.4,0,13.8,5.8,13.8,18.7s-2.4,18.7-13.8,18.7c-11.4,0-13.8-5.8-13.8-18.7   S206.3,308.5,217.7,308.5 M217.6,342c8.4,0,9.6-4.1,9.6-14.8c0-10.6-1.2-14.8-9.6-14.8c-8.4,0-9.6,4.2-9.6,14.8   C208.1,337.9,209.3,342,217.6,342"/>
	<path class="st0" d="M242,327c0-7.2-0.2-8.9-1.3-11.4c-0.6-1.4-1.8-2.5-3.2-3c-0.6-0.2-0.9-0.8-0.6-1.4l1.1-2.2   c0.3-0.5,0.8-0.7,1.4-0.4c2.2,1.2,3.7,2.6,5,6c1.2-3.7,4.4-6,8.7-6c4,0,7.5,1.7,8.9,6.4c1.4-4.7,4.9-6.4,9-6.4   c9,0,11,4.5,11.1,16.1l0.1,20.1c0,0.6-0.5,1.1-1.1,1.1h-2.1c-0.6,0-1.1-0.5-1.1-1.1l-0.1-20.1c0-9-1.4-12.1-6.9-12.1   c-5,0-6.9,3.2-6.9,12.1v20.1c0,0.6-0.5,1.1-1.1,1.1h-2.1c-0.6,0-1.1-0.5-1.1-1.1v-20.1c0-9-1.9-12.1-6.8-12.1   c-5.6,0-6.9,4.2-6.9,16.9v15.3c0,0.6-0.5,1.1-1.1,1.1H243c-0.6,0-1.1-0.5-1.1-1.1V327z"/>
	<path class="st0" d="M293.2,327c0-7.2-0.2-8.9-1.3-11.4c-0.6-1.4-1.8-2.5-3.2-3c-0.6-0.2-0.9-0.8-0.6-1.4l1.1-2.2   c0.3-0.5,0.8-0.7,1.4-0.4c2.2,1.2,3.7,2.6,5,6c1.2-3.7,4.4-6,8.7-6c4,0,7.5,1.7,8.9,6.4c1.4-4.7,4.9-6.4,9-6.4   c9,0,11,4.5,11.1,16.1l0.1,20.1c0,0.6-0.5,1.1-1.1,1.1h-2.1c-0.6,0-1.1-0.5-1.1-1.1l-0.1-20.1c0-9-1.4-12.1-6.9-12.1   c-5,0-6.9,3.2-6.9,12.1v20.1c0,0.6-0.5,1.1-1.1,1.1h-2.1c-0.6,0-1.1-0.5-1.1-1.1v-20.1c0-9-1.9-12.1-6.8-12.1   c-5.6,0-6.9,4.2-6.9,16.9v15.3c0,0.6-0.5,1.1-1.1,1.1h-2.1c-0.6,0-1.1-0.5-1.1-1.1V327z"/>
	<path class="st0" d="M341.9,309.9c0-0.6,0.5-1.1,1.1-1.1h2.1c0.6,0,1.1,0.5,1.1,1.1v17.4c0,10.9,1.1,14.8,9,14.8   c6.8,0,9-3.2,9-14.8v-17.4c0-0.6,0.5-1.1,1.1-1.1h2.1c0.6,0,1.1,0.5,1.1,1.1v17.4c0,7.2,0.2,8.9,1.3,11.4c0.6,1.4,1.8,2.5,3.2,3   c0.6,0.2,0.9,0.8,0.6,1.4l-1.1,2.1c-0.3,0.5-0.8,0.7-1.4,0.4c-2.2-1.2-3.7-2.6-5-6c-2,4.6-5.5,6.4-10.8,6.4   c-10.9,0-13.2-5.5-13.2-18.7V309.9z"/>
	<path class="st0" d="M381.2,327c0-7.2-0.2-8.9-1.3-11.4c-0.6-1.4-1.8-2.5-3.2-3c-0.6-0.2-0.9-0.8-0.6-1.4l1.1-2.2   c0.3-0.5,0.8-0.7,1.4-0.4c2.2,1.2,3.7,2.6,5,6c1.5-3.7,4.4-6,10.8-6c11.5,0,13.2,5.5,13.2,18.7v17.4c0,0.6-0.5,1.1-1.1,1.1h-2.1   c-0.6,0-1.1-0.5-1.1-1.1v-17.4c0-10.9-1.6-14.8-9-14.8c-7.3,0-9,3.9-9,14.8v17.4c0,0.6-0.5,1.1-1.1,1.1h-2.1   c-0.6,0-1.1-0.5-1.1-1.1V327z"/>
	<path class="st0" d="M416.5,298.5c0-1.4,0.5-1.8,1.8-1.8h1.4c1.4,0,1.8,0.5,1.8,1.8v1.4c0,1.4-0.5,1.8-1.8,1.8h-1.4   c-1.4,0-1.8-0.5-1.8-1.8V298.5z M417,309.9c0-0.6,0.5-1.1,1.1-1.1h2.1c0.6,0,1.1,0.5,1.1,1.1v34.8c0,0.6-0.5,1.1-1.1,1.1H418   c-0.6,0-1.1-0.5-1.1-1.1V309.9z"/>
	<path class="st0" d="M444.5,308.5c3.7,0,7.9,0.5,7.9,0.5c0.6,0.1,1,0.6,0.9,1.2l-0.2,1.8c-0.1,0.6-0.6,1-1.2,0.9   c-1.2-0.2-4.5-0.5-7.4-0.5c-8.3,0-10.3,4.1-10.3,14.8c0,10.6,2,14.8,10.3,14.8c3,0,6.2-0.3,7.4-0.5c0.6-0.1,1.1,0.3,1.2,0.9   l0.2,1.8c0.1,0.6-0.3,1.1-0.9,1.2c0,0-4.2,0.5-7.9,0.5c-11.5,0-14.5-5.8-14.5-18.7C429.9,314.3,433,308.5,444.5,308.5"/>
	<path class="st0" d="M472.7,323.3c3.8,0,6.7,0.3,8.8,2.1V320c0-5.9-3.3-7.2-9-7.2c-4,0-7.2,0.3-8.4,0.5c-0.6,0.1-1.1-0.3-1.2-0.9   l-0.2-1.8c-0.1-0.7,0.3-1.1,0.9-1.2c2.5-0.4,5.3-0.5,8.9-0.5c8.7,0,13.2,2.2,13.2,10.4v8.1c0,7.2,0.1,9.1,1.3,11.4   c0.6,1.4,1.8,2.4,3.2,3c0.6,0.2,0.8,0.8,0.6,1.4l-1.1,2.1c-0.3,0.5-0.8,0.8-1.4,0.4c-2.3-1.1-3.7-2.6-5-6c-2,4.6-5.3,6.4-10.7,6.4   c-8.7,0-13.2-2.1-13.2-11.4C459.5,325.6,464.1,323.3,472.7,323.3 M472.7,342c5.5-0.2,8.8-2.3,8.8-10.7c0-3.3-3.8-4.1-8.8-4.1   c-5.6,0-8.9,0.7-8.9,7.4C463.8,341.6,467.1,342,472.7,342"/>
	<path class="st0" d="M498.5,312.8h-5.3c-0.6,0-1.1-0.5-1.1-1.1v-1.8c0-0.6,0.5-1.1,1.1-1.1h5.3l-0.1-9.5c0-0.6,0.5-1.1,1.1-1.1h2.1   c0.6,0,1.1,0.5,1.1,1.1l0.1,9.5h10.4c0.6,0,1.1,0.5,1.1,1.1v1.8c0,0.6-0.5,1.1-1.1,1.1h-10.4v22.8c0,5.9,3.3,6.4,6.3,6.4   c3,0,4.2-0.2,4.2-0.2c0.6-0.1,1.1,0.3,1.2,0.9l0.2,1.8c0.1,0.6-0.3,1.1-0.9,1.2c0,0-0.9,0.2-4.6,0.2c-6,0-10.6-2.2-10.6-10.4   L498.5,312.8z"/>
	<path class="st0" d="M521.2,298.5c0-1.4,0.5-1.8,1.8-1.8h1.4c1.4,0,1.8,0.5,1.8,1.8v1.4c0,1.4-0.5,1.8-1.8,1.8H523   c-1.4,0-1.8-0.5-1.8-1.8V298.5z M521.6,309.9c0-0.6,0.5-1.1,1.1-1.1h2.1c0.6,0,1.1,0.5,1.1,1.1v34.8c0,0.6-0.5,1.1-1.1,1.1h-2.1   c-0.6,0-1.1-0.5-1.1-1.1V309.9z"/>
	<path class="st0" d="M548.4,308.5c11.4,0,13.8,5.8,13.8,18.7s-2.4,18.7-13.8,18.7c-11.4,0-13.8-5.8-13.8-18.7   S537,308.5,548.4,308.5 M548.3,342c8.4,0,9.6-4.1,9.6-14.8c0-10.6-1.2-14.8-9.6-14.8c-8.4,0-9.6,4.2-9.6,14.8   C538.8,337.9,540,342,548.3,342"/>
	<path class="st0" d="M572.7,327c0-7.2-0.2-8.9-1.3-11.4c-0.6-1.4-1.8-2.5-3.2-3c-0.6-0.2-0.9-0.8-0.6-1.4l1.1-2.2   c0.3-0.5,0.8-0.7,1.4-0.4c2.2,1.2,3.7,2.6,5,6c1.5-3.7,4.4-6,10.8-6c11.5,0,13.2,5.5,13.2,18.7v17.4c0,0.6-0.5,1.1-1.1,1.1h-2.1   c-0.6,0-1.1-0.5-1.1-1.1v-17.4c0-10.9-1.6-14.8-9-14.8c-7.3,0-9,3.9-9,14.8v17.4c0,0.6-0.5,1.1-1.1,1.1h-2.1   c-0.6,0-1.1-0.5-1.1-1.1V327z"/>
</g>
<g>
	<path class="st0" d="M607.2,341.8c0.1-0.6,0.6-0.9,1.2-0.8c1.2,0.3,5,1.2,10.8,1.1c4.6-0.1,7.4-1.7,7.5-6.4   c0.1-4.1-1.6-5.7-7.3-6.5c-10.1-1.4-13.4-4.7-13.3-10.7c0.1-7.2,4.8-10,13.3-9.9c4.7,0.1,6.7,0.5,8.2,0.8c0.6,0.1,0.9,0.6,0.8,1.2   l-0.3,1.8c-0.1,0.6-0.6,1-1.2,0.8c-1.2-0.2-3.9-0.7-7.6-0.7c-5.6,0-9,1.3-9,6c-0.1,3.9,2.7,5.6,9.1,6.5c9.1,1.3,11.6,4.5,11.5,10.7   c-0.1,7.2-4.8,10.3-11.8,10.3c-6.9,0.1-10.2-0.9-11.6-1.2c-0.6-0.1-1-0.6-0.8-1.2L607.2,341.8z"/>
	<path class="st1" d="M102.5,380.4C90.3,380,69.4,370.2,52.7,343l-1.4-2.3c-5.6,7.9-9.7,13.8-9.7,13.8c-1.7,2.3-4.7,2.3-4.7,2.3   H25.4c-1.3,0-1.6-1-1-1.8c0.2-0.3,9.6-13.7,19.1-27.3l-20.3-33.3c0,0-6.7-10.9-6.9-16.9c-1,5.7-1.5,18.8-1.5,38.2   c0,22.6,3.5,48.2,5.2,54.5c1.6,5.8,3.3,12.5,35,15.3c15.9,1.4,35.3-2.1,48.6-5.2C103.2,380.4,102.8,380.4,102.5,380.4"/>
</g>
<g>
	<path class="st2" d="M145.5,358.4v1.6h-3.1v8.2h-1.9V360h-3.1v-1.6H145.5z M156,368.1l-0.4-5.8c0-0.7,0-1.7-0.1-2.7h-0.1   c-0.2,0.9-0.6,2-0.8,2.9l-1.8,5.4h-2l-1.8-5.6c-0.2-0.7-0.5-1.9-0.7-2.8h-0.1c0,0.9,0,1.8-0.1,2.7l-0.4,5.8h-1.9l0.7-9.8h2.9   l1.7,4.8c0.3,0.8,0.4,1.5,0.7,2.5h0c0.3-0.9,0.5-1.7,0.7-2.4l1.7-4.8h2.8l0.8,9.8H156z"/>
</g>
<g>
	<path class="st2" d="M90.5,327.2c-1,10.2,6,18.5,15.8,18.5c9.7,0,18.4-8.3,19.4-18.5c1-10.2-6-18.5-15.7-18.5   C100.3,308.7,91.5,317,90.5,327.2"/>
	<path class="st2" d="M104.9,358.4c-17.2,0-29.7-13.9-27.9-31.1c1.8-17.2,17.2-31.1,34.4-31.1c12.1,0,21.8,6.9,25.9,16.9   c0.1-9.9-0.4-18.7-0.6-20.9c-0.3-3.2-0.6-5.3-3.6-7.1c-2.9-1.8-44-19.5-76.1-23.5c-12.8-1-22.9,1-25,8.4   c-2.2,7.7,1.4,14.1,6.4,22.8l13.7,22.6c6.2-8.8,10.9-15.6,10.9-15.6c1.7-2.3,4.7-2.3,4.7-2.3h11.6c1.3,0,1.6,1,1,1.8   c-0.2,0.3-10.4,14.9-20.3,29l10.4,17.1c22.4,34.8,44.5,31.8,49.8,30.4c3-1.3,5.5-3.6,6.6-5.8c0.9-1.8,5.9-12,8.7-30.5   C129.4,350.6,117.6,358.4,104.9,358.4"/>
</g>
<g>
	<path class="st2" d="M184.2,381.1c0.1-0.5,0.2-0.9,0.2-1.2c0-1.7-1.1-2.2-3.6-2.5c-3.2-0.3-5.2-1.3-5.2-3.9c0-0.4,0-0.9,0.2-1.5   c0.9-3.9,2.8-5.1,7-5.3c0.3,0,0.6,0,0.9,0c1.1,0,2.2,0.1,3.3,0.3c0.2,0,0.3,0.3,0.2,0.5l-0.3,0.8c-0.1,0.2-0.4,0.4-0.6,0.3   c-1-0.2-1.8-0.3-2.9-0.3c-0.3,0-0.7,0-1.1,0c-2.6,0.1-4.2,0.9-4.8,3.7c-0.1,0.4-0.1,0.8-0.1,1.1c0,1.6,1.1,2.2,3.6,2.4   c3.2,0.3,5.2,1.4,5.2,3.9c0,0.4-0.1,0.9-0.2,1.5c-0.9,4-2.8,5.2-7,5.3c-0.2,0-0.5,0-0.7,0c-1.5,0-2.7-0.2-3.9-0.5   c-0.2,0-0.3-0.3-0.2-0.5l0.3-0.8c0.1-0.2,0.4-0.4,0.6-0.3c1,0.3,2.2,0.4,3.5,0.4c0.3,0,0.5,0,0.8,0   C182.1,384.5,183.6,383.9,184.2,381.1"/>
	<path class="st2" d="M189,382.5c0-1,0.2-2.3,0.5-3.8c1.1-5.2,1.7-7.6,7.2-7.6c3.3,0,4.5,1.2,4.5,3.8c0,1-0.2,2.3-0.5,3.8   c-1.1,5.2-1.7,7.6-7.2,7.6C190.2,386.3,189,385.1,189,382.5 M191.3,378.7c-0.3,1.4-0.5,2.5-0.5,3.4c0,1.8,0.8,2.6,3,2.6   c3.8,0,4.2-1.7,5.2-6c0.3-1.4,0.5-2.5,0.5-3.4c0-1.8-0.8-2.6-3.1-2.6C192.6,372.7,192.2,374.4,191.3,378.7"/>
	<path class="st2" d="M206.8,378.7c-0.4,2.1-0.8,3.6-0.8,4.5c0,0.9,0.3,1.3,1.1,1.3c0.2,0,0.4,0.2,0.3,0.4l-0.2,0.7   c-0.1,0.2-0.3,0.4-0.5,0.4c-2,0-2.6-0.7-2.6-2.4c0-1.2,0.4-2.9,0.8-5.1l2.9-13.4c0-0.2,0.3-0.4,0.5-0.4h0.9c0.2,0,0.4,0.2,0.3,0.4   L206.8,378.7z"/>
	<path class="st2" d="M222.7,378.7c-0.4,2-0.6,2.9-0.6,3.6c0,0.4,0,0.6,0.1,1c0.1,0.6,0.5,1,1,1.2c0.2,0.1,0.3,0.3,0.1,0.6l-0.6,0.8   c-0.2,0.2-0.4,0.3-0.6,0.2c-0.8-0.5-1.3-1.1-1.5-2.4c-1.2,2.1-2.4,2.6-5,2.6c-3.2,0-4.3-1.1-4.3-3.7c0-1,0.2-2.3,0.5-3.9l1.5-7   c0-0.2,0.3-0.4,0.5-0.4h0.9c0.2,0,0.4,0.2,0.3,0.4l-1.5,7c-0.3,1.5-0.5,2.6-0.5,3.5c0,1.7,0.7,2.4,2.9,2.4c2.7,0,3.9-1.3,4.9-6   l1.5-7c0-0.2,0.3-0.4,0.5-0.4h0.9c0.2,0,0.4,0.2,0.3,0.4L222.7,378.7z"/>
	<path class="st2" d="M231.8,371.2h4.2c0.2,0,0.4,0.2,0.3,0.4l-0.2,0.7c-0.1,0.2-0.3,0.4-0.5,0.4h-4.2l-2,9.2   c-0.1,0.4-0.1,0.7-0.1,0.9c0,1.5,1.1,1.7,2.1,1.7c1.2,0,1.7-0.1,1.7-0.1c0.2,0,0.4,0.1,0.4,0.4l-0.1,0.7c0,0.2-0.2,0.4-0.5,0.5   c0,0-0.4,0.1-1.9,0.1c-2.1,0-3.6-0.6-3.6-2.8c0-0.4,0.1-0.9,0.2-1.4l2-9.2h-2.1c-0.2,0-0.4-0.2-0.3-0.4l0.1-0.7   c0-0.2,0.3-0.4,0.5-0.4h2.1l0.8-3.8c0-0.2,0.3-0.4,0.5-0.4h0.9c0.2,0,0.4,0.2,0.3,0.4L231.8,371.2z"/>
	<path class="st2" d="M239.6,371.6c0-0.2,0.3-0.4,0.5-0.4h0.9c0.2,0,0.4,0.2,0.3,0.4l-3,14.1c-0.1,0.2-0.3,0.4-0.5,0.4H237   c-0.2,0-0.4-0.2-0.3-0.4L239.6,371.6z M240.5,367c0.1-0.6,0.3-0.7,0.9-0.7h0.6c0.6,0,0.7,0.2,0.6,0.7l-0.1,0.6   c-0.1,0.6-0.3,0.7-0.9,0.7H241c-0.6,0-0.7-0.2-0.6-0.7L240.5,367z"/>
	<path class="st2" d="M243.9,382.5c0-1,0.2-2.3,0.5-3.8c1.1-5.2,1.7-7.6,7.2-7.6c3.3,0,4.5,1.2,4.5,3.8c0,1-0.2,2.3-0.5,3.8   c-1.1,5.2-1.7,7.6-7.2,7.6C245.1,386.3,243.9,385.1,243.9,382.5 M246.1,378.7c-0.3,1.4-0.5,2.5-0.5,3.4c0,1.8,0.8,2.6,3,2.6   c3.8,0,4.2-1.7,5.2-6c0.3-1.4,0.5-2.5,0.5-3.4c0-1.8-0.8-2.6-3.1-2.6C247.4,372.7,247,374.4,246.1,378.7"/>
	<path class="st2" d="M266.8,371.1c3.2,0,4.4,1.1,4.4,3.8c0,1-0.2,2.3-0.5,3.8l-1.5,7c-0.1,0.2-0.3,0.4-0.5,0.4h-0.9   c-0.2,0-0.4-0.2-0.3-0.4l1.5-7c0.3-1.6,0.6-2.8,0.6-3.7c0-1.6-0.7-2.3-2.9-2.3c-2.8,0-3.9,1.6-4.9,6l-1.5,7   c-0.1,0.2-0.3,0.4-0.5,0.4h-0.9c-0.2,0-0.4-0.2-0.3-0.4l1.5-7.1c0.4-2,0.6-2.9,0.6-3.6c0-0.4,0-0.6-0.1-1c-0.1-0.6-0.5-1-1-1.2   c-0.2-0.1-0.3-0.3-0.1-0.6l0.6-0.9c0.2-0.2,0.4-0.3,0.6-0.2c0.8,0.5,1.3,1,1.5,2.4C262.8,372,264.2,371.1,266.8,371.1"/>
	<path class="st2" d="M273.7,385.8c-0.2,0-0.3-0.3-0.2-0.5l0.3-0.7c0.1-0.2,0.3-0.4,0.6-0.3c0.4,0.1,1.5,0.5,3.8,0.4   c2.1,0,3.4-0.7,3.8-2.6c0.1-0.3,0.1-0.5,0.1-0.8c0-1-0.8-1.5-2.9-1.9c-3.3-0.6-4.4-1.7-4.4-3.3c0-0.3,0-0.7,0.1-1   c0.6-2.9,2.4-4,5.9-4c1.9,0,2.8,0.2,3.4,0.3c0.2,0,0.3,0.3,0.2,0.5l-0.3,0.7c-0.1,0.2-0.3,0.4-0.6,0.3c-0.5-0.1-1.6-0.2-3.1-0.2h0   c-2.1,0-3.3,0.5-3.7,2.4c-0.1,0.3-0.1,0.5-0.1,0.8c0,1,0.7,1.5,2.9,1.9c3.3,0.6,4.4,1.6,4.4,3.3c0,0.3,0,0.7-0.1,1.1   c-0.6,2.9-2.4,4.2-6,4.2C275.1,386.3,274.3,385.9,273.7,385.8"/>
	<path class="st2" d="M295,392.1c-0.1,0.2-0.4,0.3-0.6,0.2l-0.7-0.4c-0.2-0.1-0.3-0.3-0.1-0.6l3.2-5.4l-1.9-14.1   c0-0.2,0.1-0.5,0.4-0.5l0.9-0.1c0.3,0,0.5,0.1,0.5,0.3l1.5,11.7l7.2-12c0.1-0.2,0.4-0.3,0.6-0.3l0.8,0.5c0.2,0.1,0.3,0.3,0.1,0.6   L295,392.1z"/>
	<path class="st2" d="M307.6,382.5c0-1,0.2-2.3,0.5-3.8c1.1-5.2,1.7-7.6,7.2-7.6c3.3,0,4.5,1.2,4.5,3.8c0,1-0.2,2.3-0.5,3.8   c-1.1,5.2-1.7,7.6-7.2,7.6C308.7,386.3,307.6,385.1,307.6,382.5 M309.8,378.7c-0.3,1.4-0.5,2.5-0.5,3.4c0,1.8,0.8,2.6,3,2.6   c3.8,0,4.2-1.7,5.2-6c0.3-1.4,0.5-2.5,0.5-3.4c0-1.8-0.8-2.6-3.1-2.6C311.1,372.7,310.7,374.4,309.8,378.7"/>
	<path class="st2" d="M333.9,378.7c-0.4,2-0.6,2.9-0.6,3.6c0,0.4,0,0.6,0.1,1c0.1,0.6,0.5,1,1,1.2c0.2,0.1,0.3,0.3,0.1,0.6l-0.6,0.8   c-0.2,0.2-0.4,0.3-0.6,0.2c-0.8-0.5-1.3-1.1-1.5-2.4c-1.2,2.1-2.4,2.6-5,2.6c-3.2,0-4.3-1.1-4.3-3.7c0-1,0.2-2.3,0.5-3.9l1.5-7   c0-0.2,0.3-0.4,0.5-0.4h0.9c0.2,0,0.4,0.2,0.3,0.4l-1.5,7c-0.3,1.5-0.5,2.6-0.5,3.5c0,1.7,0.7,2.4,2.9,2.4c2.7,0,3.9-1.3,4.9-6   l1.5-7c0-0.2,0.3-0.4,0.5-0.4h0.9c0.2,0,0.4,0.2,0.3,0.4L333.9,378.7z"/>
	<path class="st2" d="M353.7,373.8c0.3,0,0.4,0.2,0.4,0.4l0.9,9.2l5.9-11.9c0.1-0.3,0.4-0.4,0.6-0.3l0.9,0.2   c0.2,0.1,0.3,0.3,0.2,0.6l-7,13.7c-0.1,0.2-0.3,0.4-0.6,0.4h-0.8c-0.3,0-0.4-0.2-0.4-0.4l-1-8.9l-4.8,8.9c-0.1,0.2-0.3,0.4-0.6,0.4   h-0.7c-0.3,0-0.4-0.2-0.4-0.4l-1.2-13.7c0-0.3,0.1-0.5,0.4-0.6l0.8-0.2c0.3-0.1,0.5,0,0.5,0.3l0.9,11.9l4.9-9.2   c0.1-0.2,0.3-0.4,0.6-0.4H353.7z"/>
	<path class="st2" d="M375,378.7c-0.4,1.9-0.6,2.9-0.6,3.6c0,0.4,0,0.6,0.1,1c0.2,0.6,0.5,1,1,1.2c0.2,0.1,0.3,0.3,0.1,0.6l-0.6,0.8   c-0.2,0.2-0.4,0.3-0.6,0.2c-0.8-0.5-1.3-1.1-1.5-2.4c-0.8,1.9-2.4,2.6-4.9,2.6c-3.3,0-4.5-1.1-4.5-3.8c0-1,0.2-2.3,0.5-3.8   c1.1-5.3,2.1-7.6,7.3-7.6c2.2,0,5.2,0.7,4.9,2.1C375.9,374.6,375,378.7,375,378.7 M370.9,372.7c-3.6,0-4.2,1.6-5.1,6   c-0.3,1.6-0.6,2.8-0.6,3.8c0,1.6,0.8,2.2,3.2,2.2c2.8,0,3.8-1.3,4.8-6l1.2-5.4C373.5,372.8,372,372.7,370.9,372.7"/>
	<path class="st2" d="M386.6,371.1c3.2,0,4.4,1.1,4.4,3.8c0,1-0.2,2.3-0.5,3.8l-1.5,7c-0.1,0.2-0.3,0.4-0.5,0.4h-0.9   c-0.2,0-0.4-0.2-0.3-0.4l1.5-7c0.3-1.6,0.6-2.8,0.6-3.7c0-1.6-0.7-2.3-2.9-2.3c-2.8,0-3.9,1.6-4.9,6l-1.5,7   c-0.1,0.2-0.3,0.4-0.5,0.4h-0.9c-0.2,0-0.4-0.2-0.3-0.4l1.5-7.1c0.4-2,0.6-2.9,0.6-3.6c0-0.4,0-0.6-0.1-1c-0.1-0.6-0.5-1-1-1.2   c-0.2-0.1-0.3-0.3-0.1-0.6l0.6-0.9c0.2-0.2,0.4-0.3,0.6-0.2c0.8,0.5,1.3,1,1.5,2.4C382.6,372,384.1,371.1,386.6,371.1"/>
	<path class="st2" d="M399,371.2h4.2c0.2,0,0.4,0.2,0.3,0.4l-0.2,0.7c-0.1,0.2-0.3,0.4-0.5,0.4h-4.2l-2,9.2   c-0.1,0.4-0.1,0.7-0.1,0.9c0,1.5,1.1,1.7,2.1,1.7c1.2,0,1.7-0.1,1.7-0.1c0.2,0,0.4,0.1,0.4,0.4l-0.1,0.7c0,0.2-0.2,0.4-0.5,0.5   c0,0-0.4,0.1-1.9,0.1c-2.1,0-3.6-0.6-3.6-2.8c0-0.4,0.1-0.9,0.2-1.4l2-9.2h-2.1c-0.2,0-0.4-0.2-0.3-0.4l0.1-0.7   c0-0.2,0.3-0.4,0.5-0.4h2.1l0.8-3.8c0-0.2,0.3-0.4,0.5-0.4h0.9c0.2,0,0.4,0.2,0.3,0.4L399,371.2z"/>
	<path class="st2" d="M405.3,384.3c0.1-0.5,0.6-0.9,1-0.9h1c0.5,0,0.8,0.4,0.7,0.9l-0.2,1c-0.1,0.5-0.6,0.9-1,0.9h-1   c-0.5,0-0.8-0.4-0.7-0.9L405.3,384.3z"/>
	<path class="st2" d="M428,381.1c0.1-0.5,0.2-0.9,0.2-1.2c0-1.7-1.1-2.2-3.6-2.5c-3.2-0.3-5.2-1.3-5.2-3.9c0-0.4,0-0.9,0.2-1.5   c0.9-3.9,2.8-5.1,7-5.3c0.3,0,0.6,0,0.9,0c1.1,0,2.2,0.1,3.3,0.3c0.2,0,0.3,0.3,0.2,0.5l-0.3,0.8c-0.1,0.2-0.4,0.4-0.6,0.3   c-1-0.2-1.8-0.3-2.9-0.3c-0.3,0-0.7,0-1.1,0c-2.6,0.1-4.2,0.9-4.8,3.7c-0.1,0.4-0.1,0.8-0.1,1.1c0,1.6,1.1,2.2,3.6,2.4   c3.2,0.3,5.2,1.4,5.2,3.9c0,0.4-0.1,0.9-0.2,1.5c-0.9,4-2.8,5.2-7,5.3c-0.2,0-0.5,0-0.7,0c-1.5,0-2.7-0.2-3.9-0.5   c-0.2,0-0.3-0.3-0.2-0.5l0.3-0.8c0.1-0.2,0.4-0.4,0.6-0.3c1,0.3,2.2,0.4,3.5,0.4c0.3,0,0.5,0,0.8,0   C425.8,384.5,427.4,383.9,428,381.1"/>
	<path class="st2" d="M444.6,378.7c-0.4,2-0.6,2.9-0.6,3.6c0,0.4,0,0.6,0.1,1c0.1,0.6,0.5,1,1,1.2c0.2,0.1,0.3,0.3,0.1,0.6l-0.6,0.8   c-0.2,0.2-0.4,0.3-0.6,0.2c-0.8-0.5-1.3-1.1-1.5-2.4c-1.2,2.1-2.4,2.6-5,2.6c-3.2,0-4.3-1.1-4.3-3.7c0-1,0.2-2.3,0.5-3.9l1.5-7   c0-0.2,0.3-0.4,0.5-0.4h0.9c0.2,0,0.4,0.2,0.3,0.4l-1.5,7c-0.3,1.5-0.5,2.6-0.5,3.5c0,1.7,0.7,2.4,2.9,2.4c2.7,0,3.9-1.3,4.9-6   l1.5-7c0-0.2,0.3-0.4,0.5-0.4h0.9c0.2,0,0.4,0.2,0.3,0.4L444.6,378.7z"/>
	<path class="st2" d="M450.6,384.6l-1.6,7.5c0,0.2-0.3,0.4-0.5,0.4h-0.9c-0.2,0-0.4-0.2-0.3-0.4l2.9-13.4c0.4-1.9,0.6-2.9,0.6-3.6   c0-0.4,0-0.6-0.1-1c-0.2-0.6-0.5-1-1-1.2c-0.2-0.1-0.3-0.3-0.1-0.6l0.6-0.8c0.2-0.2,0.4-0.3,0.6-0.2c0.8,0.5,1.3,1.1,1.5,2.4   c1.2-2.3,2.4-2.6,4.9-2.6c3.4,0,4.6,1.1,4.6,3.7c0,1-0.2,2.3-0.5,3.8c-1.1,5.3-1.7,7.6-7.3,7.6   C452.3,386.3,451.1,385.8,450.6,384.6 M459.3,378.7c0.3-1.4,0.5-2.6,0.5-3.5c0-1.8-0.8-2.5-3.1-2.5c-2.8,0-3.8,1.3-4.7,5.3   c-0.4,1.8-0.6,3.1-0.6,4.1c0,1.8,0.8,2.5,2.8,2.5C458,384.7,458.4,383.1,459.3,378.7"/>
	<path class="st2" d="M466.7,384.6l-1.6,7.5c0,0.2-0.3,0.4-0.5,0.4h-0.9c-0.2,0-0.4-0.2-0.3-0.4l2.9-13.4c0.4-1.9,0.6-2.9,0.6-3.6   c0-0.4,0-0.6-0.1-1c-0.2-0.6-0.5-1-1-1.2c-0.2-0.1-0.3-0.3-0.1-0.6l0.6-0.8c0.2-0.2,0.4-0.3,0.6-0.2c0.8,0.5,1.3,1.1,1.5,2.4   c1.2-2.3,2.4-2.6,4.9-2.6c3.4,0,4.6,1.1,4.6,3.7c0,1-0.2,2.3-0.5,3.8c-1.1,5.3-1.7,7.6-7.2,7.6   C468.3,386.3,467.1,385.8,466.7,384.6 M475.4,378.7c0.3-1.4,0.5-2.6,0.5-3.5c0-1.8-0.8-2.5-3.1-2.5c-2.8,0-3.8,1.3-4.7,5.3   c-0.4,1.8-0.6,3.1-0.6,4.1c0,1.8,0.8,2.5,2.8,2.5C474.1,384.7,474.5,383.1,475.4,378.7"/>
	<path class="st2" d="M480.4,382.5c0-1,0.2-2.3,0.5-3.8c1.1-5.2,1.7-7.6,7.2-7.6c3.3,0,4.5,1.2,4.5,3.8c0,1-0.2,2.3-0.5,3.8   c-1.1,5.2-1.7,7.6-7.2,7.6C481.6,386.3,480.4,385.1,480.4,382.5 M482.6,378.7c-0.3,1.4-0.5,2.5-0.5,3.4c0,1.8,0.8,2.6,3,2.6   c3.8,0,4.2-1.7,5.2-6c0.3-1.4,0.5-2.5,0.5-3.4c0-1.8-0.8-2.6-3.1-2.6C483.9,372.7,483.5,374.4,482.6,378.7"/>
	<path class="st2" d="M503.7,371.1c0.5,0,1.6,0,2,0.2c0.2,0.1,0.2,0.3,0.2,0.5l-0.4,2.1c-0.1,0.2-0.2,0.4-0.4,0.4h-0.9   c-0.3,0-0.5-0.2-0.4-0.4l0.2-0.8l0.1-0.3c-3.9,0-4.8,1.7-5.9,6.8l-1.3,6.1c-0.1,0.2-0.3,0.4-0.5,0.4h-0.9c-0.2,0-0.4-0.2-0.3-0.4   l1.5-7.1c0.4-2,0.6-2.9,0.6-3.6c0-0.4,0-0.6-0.1-1c-0.1-0.6-0.5-1-1-1.2c-0.2-0.1-0.3-0.3-0.1-0.6l0.6-0.9c0.2-0.2,0.4-0.3,0.6-0.2   c0.8,0.5,1.3,1,1.5,2.4C499.7,371.8,501.3,371.1,503.7,371.1"/>
	<path class="st2" d="M511.4,371.2h4.2c0.2,0,0.4,0.2,0.3,0.4l-0.2,0.7c-0.1,0.2-0.3,0.4-0.5,0.4H511l-2,9.2   c-0.1,0.4-0.1,0.7-0.1,0.9c0,1.5,1.1,1.7,2.1,1.7c1.2,0,1.7-0.1,1.7-0.1c0.2,0,0.4,0.1,0.4,0.4l-0.1,0.7c0,0.2-0.2,0.4-0.5,0.5   c0,0-0.4,0.1-1.9,0.1c-2.1,0-3.6-0.6-3.6-2.8c0-0.4,0.1-0.9,0.2-1.4l2-9.2h-2.1c-0.2,0-0.4-0.2-0.3-0.4l0.1-0.7   c0-0.2,0.3-0.4,0.5-0.4h2.1l0.8-3.8c0-0.2,0.3-0.4,0.5-0.4h0.9c0.2,0,0.4,0.2,0.3,0.4L511.4,371.2z"/>
	<path class="st2" d="M524.1,392.1c-0.1,0.2-0.4,0.3-0.6,0.2l-0.7-0.4c-0.2-0.1-0.3-0.3-0.1-0.6l3.2-5.4l-1.9-14.1   c0-0.2,0.1-0.5,0.4-0.5l0.9-0.1c0.3,0,0.5,0.1,0.5,0.3l1.4,11.7l7.2-12c0.1-0.2,0.4-0.3,0.6-0.3l0.8,0.5c0.2,0.1,0.3,0.3,0.1,0.6   L524.1,392.1z"/>
	<path class="st2" d="M536.7,382.5c0-1,0.2-2.3,0.5-3.8c1.1-5.2,1.7-7.6,7.2-7.6c3.3,0,4.5,1.2,4.5,3.8c0,1-0.2,2.3-0.5,3.8   c-1.1,5.2-1.7,7.6-7.2,7.6C537.8,386.3,536.7,385.1,536.7,382.5 M538.9,378.7c-0.3,1.4-0.5,2.5-0.5,3.4c0,1.8,0.8,2.6,3,2.6   c3.8,0,4.2-1.7,5.2-6c0.3-1.4,0.5-2.5,0.5-3.4c0-1.8-0.8-2.6-3.1-2.6C540.2,372.7,539.8,374.4,538.9,378.7"/>
	<path class="st2" d="M563,378.7c-0.4,2-0.6,2.9-0.6,3.6c0,0.4,0,0.6,0.1,1c0.1,0.6,0.5,1,1,1.2c0.2,0.1,0.3,0.3,0.1,0.6l-0.6,0.8   c-0.2,0.2-0.4,0.3-0.6,0.2c-0.8-0.5-1.3-1.1-1.5-2.4c-1.2,2.1-2.4,2.6-5,2.6c-3.2,0-4.3-1.1-4.3-3.7c0-1,0.2-2.3,0.5-3.9l1.5-7   c0-0.2,0.3-0.4,0.5-0.4h0.9c0.2,0,0.4,0.2,0.3,0.4l-1.5,7c-0.3,1.5-0.5,2.6-0.5,3.5c0,1.7,0.7,2.4,2.9,2.4c2.7,0,3.9-1.3,4.9-6   l1.5-7c0-0.2,0.3-0.4,0.5-0.4h0.9c0.2,0,0.4,0.2,0.3,0.4L563,378.7z"/>
	<path class="st2" d="M581.7,371.1c3.2,0,4.4,1.1,4.4,3.8c0,1-0.2,2.3-0.5,3.8l-1.5,7c-0.1,0.2-0.3,0.4-0.5,0.4h-0.9   c-0.2,0-0.4-0.2-0.3-0.4l1.5-7c0.3-1.6,0.6-2.8,0.6-3.7c0-1.6-0.7-2.3-2.9-2.3c-2.8,0-3.9,1.6-4.9,6l-1.5,7   c-0.1,0.2-0.3,0.4-0.5,0.4h-0.9c-0.2,0-0.4-0.2-0.3-0.4l1.5-7.1c0.4-2,0.6-2.9,0.6-3.6c0-0.4,0-0.6-0.1-1c-0.1-0.6-0.5-1-1-1.2   c-0.2-0.1-0.3-0.3-0.1-0.6l0.6-0.9c0.2-0.2,0.4-0.3,0.6-0.2c0.8,0.5,1.3,1,1.5,2.4C577.7,372,579.1,371.1,581.7,371.1"/>
	<path class="st2" d="M595.4,379.3h-4c-0.2,1.1-0.4,2.1-0.4,2.8c0,1.7,0.7,2.5,3.3,2.5c1.2,0,3.3-0.2,4-0.3c0.2,0,0.4,0.1,0.4,0.4   l-0.1,0.7c0,0.2-0.2,0.4-0.5,0.5c-1.4,0.2-2.9,0.3-4.2,0.3c-3.4,0-4.7-1.2-4.7-3.9c0-1,0.2-2.2,0.5-3.6c1.1-5.4,2.2-7.6,7.4-7.6   c2.8,0,4.5,1.1,4.5,3.2c0,0.3,0,0.6-0.1,1C600.8,378.6,598.7,379.3,595.4,379.3 M599.8,375.1c0.1-0.3,0.1-0.6,0.1-0.8   c0-1.1-0.9-1.6-3.1-1.6c-3.3,0-4.2,1.2-5.1,5h4C598.3,377.7,599.3,377,599.8,375.1"/>
	<path class="st2" d="M610.5,379.3h-4c-0.2,1.1-0.4,2.1-0.4,2.8c0,1.7,0.7,2.5,3.3,2.5c1.2,0,3.3-0.2,4-0.3c0.2,0,0.4,0.1,0.4,0.4   l-0.1,0.7c0,0.2-0.2,0.4-0.5,0.5c-1.4,0.2-2.9,0.3-4.2,0.3c-3.4,0-4.7-1.2-4.7-3.9c0-1,0.2-2.2,0.5-3.6c1.1-5.4,2.2-7.6,7.4-7.6   c2.8,0,4.5,1.1,4.5,3.2c0,0.3,0,0.6-0.1,1C615.9,378.6,613.8,379.3,610.5,379.3 M614.9,375.1c0.1-0.3,0.1-0.6,0.1-0.8   c0-1.1-0.9-1.6-3.1-1.6c-3.3,0-4.2,1.2-5.1,5h4C613.4,377.7,614.4,377,614.9,375.1"/>
</g>
<g>
	<path class="st2" d="M631.6,365.3c0-0.2,0.3-0.4,0.5-0.4h0.9c0.2,0,0.4,0.2,0.3,0.4l-2.9,13.4c-0.4,1.9-0.6,2.9-0.6,3.6   c0,0.4,0,0.6,0.1,1c0.2,0.6,0.5,1,1,1.2c0.2,0.1,0.3,0.3,0.1,0.6l-0.6,0.8c-0.2,0.2-0.4,0.3-0.6,0.2c-0.8-0.5-1.3-1.1-1.5-2.4   c-1.2,2.3-2.4,2.6-4.9,2.6c-3.4,0-4.6-1.1-4.6-3.7c0-1,0.2-2.3,0.5-3.8c1.1-5.3,1.7-7.6,7.2-7.6c1.1,0,2.5,0.2,3.5,0.5L631.6,365.3   z M621.3,378.7c-0.3,1.4-0.5,2.6-0.5,3.5c0,1.8,0.8,2.5,3.1,2.5c2.8,0,3.8-1.3,4.7-5.3l1.3-6c-0.9-0.5-2.3-0.6-3.5-0.6   C622.6,372.7,622.2,374.3,621.3,378.7"/>
	<path class="st2" d="M635.7,384.3c0.1-0.5,0.6-0.9,1-0.9h1c0.5,0,0.8,0.4,0.7,0.9l-0.2,1c-0.1,0.5-0.6,0.9-1,0.9h-1   c-0.5,0-0.8-0.4-0.7-0.9L635.7,384.3z"/>
</g>
</svg>